<?xml version="1.0" standalone="no"?>
<!DOCTYPE svg PUBLIC "-//W3C//DTD SVG 20010904//EN"
 "http://www.w3.org/TR/2001/REC-SVG-20010904/DTD/svg10.dtd">
<svg version="1.0" xmlns="http://www.w3.org/2000/svg"
 width="809.000000pt" height="809.000000pt" viewBox="0 0 809.000000 809.000000"
 preserveAspectRatio="xMidYMid meet">
<metadata>
Created by potrace 1.14, written by Peter Selinger 2001-2017
</metadata>
<g transform="translate(0.000000,809.000000) scale(0.100000,-0.100000)"
fill="#000000" stroke="none">
<path d="M6001 5408 c-41 -5 -90 -16 -109 -24 -19 -8 -42 -14 -52 -14 -20 0
-50 -31 -50 -52 0 -8 -9 -23 -20 -33 -11 -10 -20 -28 -20 -41 0 -13 -4 -25 -9
-28 -14 -9 9 -82 33 -104 11 -10 68 -47 124 -82 222 -135 357 -260 417 -385
55 -114 68 -181 62 -320 -8 -185 -59 -352 -174 -578 -123 -241 -267 -378 -507
-481 -162 -69 -293 -92 -586 -103 -161 -5 -181 -4 -250 16 -181 53 -274 87
-400 146 -74 35 -178 79 -230 98 -210 78 -217 83 -351 234 -218 246 -408 432
-443 433 -6 1 -38 35 -71 78 -81 103 -514 542 -535 542 -10 0 -78 47 -152 104
-74 58 -159 120 -189 139 -131 84 -382 194 -532 234 -91 24 -120 27 -267 28
-231 0 -362 -26 -565 -113 -38 -17 -95 -40 -125 -52 -85 -33 -178 -92 -254
-159 -38 -34 -77 -61 -86 -61 -10 0 -25 -12 -35 -26 -9 -14 -44 -53 -79 -87
-46 -46 -72 -83 -99 -142 -37 -80 -77 -217 -77 -262 0 -13 -10 -52 -22 -86
-19 -54 -22 -90 -26 -284 -5 -235 5 -360 36 -478 28 -104 79 -219 134 -301 27
-41 61 -102 75 -136 71 -175 148 -304 244 -403 26 -27 95 -105 153 -172 234
-268 534 -465 831 -543 44 -11 91 -27 105 -34 14 -7 39 -16 55 -20 17 -4 44
-13 60 -20 17 -8 66 -26 110 -41 44 -15 118 -40 165 -56 108 -37 180 -48 410
-59 478 -23 957 -8 1125 35 31 8 76 15 100 15 25 0 77 6 117 14 40 8 120 20
178 26 141 14 404 74 515 116 121 47 185 68 277 93 84 23 335 132 487 212 52
27 98 49 103 49 19 0 166 92 232 145 38 30 76 55 84 55 8 0 32 15 52 32 21 18
59 48 84 66 31 22 46 40 46 55 0 15 35 58 103 127 112 116 179 208 252 345 27
50 59 99 71 110 63 54 371 713 390 833 13 81 126 287 253 462 166 229 160 222
271 279 54 28 102 56 105 61 9 15 152 80 177 80 13 0 50 7 83 14 47 12 67 23
97 55 36 38 38 44 38 105 0 58 -4 69 -33 108 -21 27 -56 55 -97 77 l-65 33
-187 -16 c-106 -10 -199 -23 -215 -31 -15 -8 -77 -27 -138 -44 -60 -16 -132
-39 -158 -50 -66 -28 -87 -27 -176 13 -42 19 -98 43 -124 54 -26 12 -67 36
-90 55 -85 68 -161 107 -210 107 -25 0 -88 11 -139 25 -99 27 -174 30 -307 13z
m-3952 -1184 c114 -67 41 -272 -152 -427 -92 -74 -210 -129 -269 -125 -53 3
-50 9 -63 -132 -13 -147 -15 -151 -38 -148 -32 4 -39 79 -34 343 l5 220 -87
-7 c-47 -3 -181 -7 -297 -7 -176 -1 -214 2 -224 14 -23 28 -4 42 77 54 166 25
333 42 443 46 l115 4 21 37 c25 43 28 45 148 89 180 65 291 77 355 39z m-836
-374 c4 -41 6 -131 5 -200 -4 -117 -6 -129 -35 -186 -55 -107 -141 -160 -217
-134 -78 25 -149 119 -127 166 18 40 49 30 106 -33 l53 -58 41 43 c77 80 92
126 107 312 7 91 13 166 13 168 1 2 11 2 24 0 20 -3 23 -11 30 -78z m1795
-359 c8 -4 12 -19 10 -32 -2 -20 -12 -26 -53 -35 l-50 -10 3 -40 c2 -21 6 -41
8 -43 2 -2 17 2 33 9 39 16 63 7 59 -22 -2 -16 -15 -27 -48 -39 -43 -16 -45
-19 -45 -55 0 -44 -1 -43 100 -29 61 9 85 -9 67 -49 -9 -20 -23 -26 -79 -36
-37 -7 -86 -10 -108 -8 -59 5 -65 25 -53 173 10 116 9 120 -11 133 -30 21 -27
50 7 58 15 3 47 12 72 19 54 16 71 17 88 6z m-1108 -31 c24 -24 26 -72 4 -94
-8 -9 -31 -16 -49 -16 -43 0 -65 22 -65 65 0 58 69 86 110 45z m-555 -30 c0
-33 -2 -35 -35 -35 -29 0 -36 4 -38 23 -6 40 5 54 40 50 30 -3 33 -6 33 -38z
m1265 -115 c0 -103 0 -105 20 -95 12 6 40 10 63 8 38 -3 43 -6 54 -39 6 -20
13 -62 15 -94 2 -46 0 -60 -14 -69 -29 -18 -52 5 -61 63 -5 28 -13 51 -18 51
-5 0 -23 -10 -39 -22 -22 -16 -31 -32 -36 -67 -8 -56 -28 -91 -53 -91 -49 0
-50 39 -12 285 29 180 27 175 56 175 l25 0 0 -105z m-212 33 c3 -22 -2 -30
-21 -37 -24 -9 -25 -15 -32 -123 -8 -140 -10 -148 -40 -148 -22 0 -24 5 -29
73 -4 39 -7 92 -9 117 l-2 45 -40 0 c-36 0 -40 3 -43 26 -3 24 3 28 65 52 40
15 85 25 108 24 36 -2 40 -5 43 -29z m2517 -623 c0 -377 -2 -388 -67 -393 -29
-3 -40 2 -52 20 -13 20 -13 37 -2 133 7 61 10 113 7 117 -3 4 -60 -4 -126 -17
-66 -14 -121 -25 -122 -25 -2 0 -4 -55 -4 -122 -1 -68 -4 -157 -8 -198 l-6
-75 -31 -3 c-29 -3 -32 0 -37 30 -15 86 -18 260 -8 433 15 248 16 257 44 253
19 -3 23 -11 29 -58 3 -30 6 -83 7 -117 1 -34 5 -64 9 -67 9 -5 252 72 265 84
5 4 18 72 28 151 22 162 31 192 57 187 16 -3 17 -28 17 -333z m-1214 285 c28
-16 26 -74 -5 -105 -26 -26 -67 -40 -91 -31 -20 7 -19 42 1 50 11 4 14 13 10
31 -4 17 0 31 14 45 22 22 42 25 71 10z m-193 -16 c29 -20 31 -88 4 -103 -10
-5 -85 -17 -167 -26 -145 -16 -268 -38 -291 -53 -6 -4 -14 -54 -17 -114 -7
-126 -17 -119 122 -83 102 27 190 32 209 13 16 -16 15 -53 0 -65 -7 -5 -86
-18 -176 -28 -125 -14 -165 -22 -171 -34 -5 -9 -12 -119 -15 -246 -4 -126 -9
-238 -12 -247 -5 -18 -39 -25 -47 -10 -8 13 -27 191 -37 357 -12 189 2 407 28
464 20 42 80 78 192 115 69 23 251 62 345 75 6 0 21 -6 33 -15z m750 -160 c2
-17 -3 -22 -32 -27 -20 -3 -55 -19 -79 -36 -44 -30 -147 -136 -147 -150 0 -5
21 -16 48 -26 108 -40 161 -101 162 -186 0 -63 -55 -154 -154 -255 -164 -165
-252 -196 -272 -96 -7 37 8 54 173 195 50 43 104 96 119 118 26 39 27 42 12
67 -10 17 -47 42 -98 67 -90 45 -100 55 -100 103 0 48 22 83 87 141 82 74 164
113 228 109 42 -3 50 -6 53 -24z m-564 -230 c19 -19 15 -76 -20 -289 -42 -250
-47 -269 -68 -273 -10 -2 -22 0 -27 5 -10 10 5 319 22 454 7 51 18 97 26 105
19 18 48 18 67 -2z"/>
<path d="M1790 4109 c-148 -31 -140 -22 -166 -179 -13 -74 -22 -136 -20 -138
10 -9 209 120 264 172 67 62 126 142 116 157 -9 14 -93 9 -194 -12z"/>
</g>
</svg>
